<svg xmlns="http://www.w3.org/2000/svg" viewBox="0 0 1200 675" role="img" aria-labelledby="title desc">
  <title id="title">Cozy Stickerville campaign organizer concept</title>
  <desc id="desc">A soft isometric four-module board game insert with year cards, catalog cards, resource bowls, and a save-game dock.</desc>
  <defs>
    <linearGradient id="bg" x1="0" y1="0" x2="1" y2="1"><stop stop-color="#fff8ee"/><stop offset="1" stop-color="#e7f2ea"/></linearGradient>
    <linearGradient id="sage" x1="0" y1="0" x2="1" y2="1"><stop stop-color="#9ec9b5"/><stop offset="1" stop-color="#4d8d75"/></linearGradient>
    <linearGradient id="peach" x1="0" y1="0" x2="1" y2="1"><stop stop-color="#f5c3a5"/><stop offset="1" stop-color="#d78563"/></linearGradient>
    <filter id="shadow" x="-30%" y="-30%" width="160%" height="180%"><feDropShadow dx="0" dy="20" stdDeviation="20" flood-color="#30453d" flood-opacity=".17"/></filter>
  </defs>
  <rect width="1200" height="675" fill="url(#bg)"/>
  <g opacity=".45" stroke="#cad8cf"><path d="M55 550h1090M115 485h970M175 420h850M235 355h730"/><path d="M600 258 60 610M600 258l540 352M600 258 310 640M600 258l290 382"/></g>
  <g font-family="Arial, sans-serif">
    <text x="62" y="70" fill="#46806b" font-size="20" font-weight="700" letter-spacing="2">BOARD GAMES · CAMPAIGN ORGANIZER</text>
    <text x="62" y="116" fill="#20372f" font-size="44" font-weight="800">Cozy Stickerville</text>
    <text x="62" y="151" fill="#718078" font-size="20">Year library · resource village · save-game dock</text>
  </g>
  <g filter="url(#shadow)" transform="translate(190 178)">
    <path d="M60 92 560 46 820 194 314 245 60 96Z" fill="#486f61" opacity=".18"/>
    <path d="M60 92 314 245v245L60 336Z" fill="#426e5e"/>
    <path d="M314 245 820 194v242L314 490Z" fill="#315b4d"/>
    <path d="M60 92 560 46l260 148-506 51Z" fill="#709b89"/>

    <g transform="translate(100 117)">
      <path d="M0 0 260-24l94 54-261 27Z" fill="#f5e9d2" stroke="#b6a889" stroke-width="4"/>
      <path d="m93 57 261-27v141L93 201Z" fill="#d8cab0" stroke="#a5987e" stroke-width="4"/>
      <path d="M0 0 93 57v144L0 146Z" fill="#c9b99d" stroke="#9c8d73" stroke-width="4"/>
      <g fill="#7f9e8f" stroke="#547666" stroke-width="2">
        <path d="m23 19 48-5 22 13-48 5Z"/><path d="m78 14 48-5 22 13-48 5Z"/><path d="m133 9 48-5 22 13-48 5Z"/><path d="m188 4 48-5 22 13-48 5Z"/>
      </g>
      <g fill="#fff7ea" font-family="Arial" font-weight="700" font-size="12"><text x="49" y="27">1–3</text><text x="104" y="22">4–6</text><text x="159" y="17">7–8</text><text x="214" y="12">9–10</text></g>
    </g>

    <g transform="translate(447 83)">
      <path d="M0 0 177-16l78 45-178 19Z" fill="url(#sage)" stroke="#477966" stroke-width="4"/>
      <path d="m77 48 178-19v143L77 194Z" fill="#568b76" stroke="#3c6f5c" stroke-width="4"/>
      <path d="M0 0 77 48v146L0 148Z" fill="#4a806c" stroke="#356553" stroke-width="4"/>
      <path d="m29 17 108-10 63 36-110 12Z" fill="#f8f3e8" stroke="#456e60" stroke-width="3"/>
      <text x="103" y="41" fill="#4c7467" font-family="Arial" font-size="17" font-weight="700" text-anchor="middle">CATALOG 1–60</text>
    </g>

    <g transform="translate(430 300)">
      <path d="M0 0 190-19l91 52-192 21Z" fill="url(#peach)" stroke="#b66f51" stroke-width="4"/>
      <path d="m89 54 192-21v112L89 168Z" fill="#d68665" stroke="#a65d44" stroke-width="4"/>
      <path d="M0 0 89 54v114L0 115Z" fill="#c77758" stroke="#98533e" stroke-width="4"/>
      <g stroke="#a96349" stroke-width="3"><ellipse cx="58" cy="31" rx="30" ry="17" fill="#d6b075"/><ellipse cx="120" cy="25" rx="30" ry="17" fill="#e6c98d"/><ellipse cx="181" cy="19" rx="30" ry="17" fill="#dca66f"/><ellipse cx="233" cy="25" rx="23" ry="14" fill="#859c80"/></g>
    </g>

    <g transform="translate(120 340)">
      <path d="M0 0 205-20l85 49-206 23Z" fill="#9bb1d5" stroke="#617aa5" stroke-width="4"/>
      <path d="m84 52 206-23v99L84 154Z" fill="#718bb8" stroke="#536d99" stroke-width="4"/>
      <path d="M0 0 84 52v102L0 105Z" fill="#627dab" stroke="#4d6590" stroke-width="4"/>
      <path d="m35 18 118-12 81 46-120 14Z" fill="#f7f0dd" stroke="#60749b" stroke-width="3"/>
      <text x="136" y="47" fill="#60749b" font-family="Arial" font-size="16" font-weight="700" text-anchor="middle">SAVE GAME</text>
    </g>
  </g>
  <g font-family="Arial, sans-serif"><rect x="881" y="58" width="255" height="52" rx="26" fill="#fff" opacity=".9"/><text x="1008" y="91" fill="#4c7768" font-size="16" font-weight="700" text-anchor="middle">MEASURED MODULES · 2 PLATES</text></g>
</svg>
