<svg xmlns="http://www.w3.org/2000/svg" viewBox="0 0 900 675" role="img" aria-labelledby="title desc">
  <title id="title">Magnetic hex token tray system</title>
  <desc id="desc">Three mint-green hexagonal token bowls with single, split, and triple wells.</desc>
  <defs>
    <linearGradient id="bg" x1="0" y1="0" x2="1" y2="1"><stop stop-color="#f4f8f4"/><stop offset="1" stop-color="#e7edef"/></linearGradient>
    <linearGradient id="mint" x1="0" y1="0" x2="1" y2="1"><stop stop-color="#a4e1cc"/><stop offset="1" stop-color="#4a9b7f"/></linearGradient>
    <filter id="shadow" x="-30%" y="-30%" width="160%" height="180%"><feDropShadow dx="0" dy="22" stdDeviation="20" flood-color="#243f36" flood-opacity=".2"/></filter>
  </defs>
  <rect width="900" height="675" fill="url(#bg)"/>
  <g opacity=".38" stroke="#cdd8d2"><path d="M35 570h830M80 505h740M125 440h650M170 375h560"/><path d="M450 265 45 620M450 265l405 355M450 265 220 640M450 265l230 375"/></g>
  <g filter="url(#shadow)" transform="translate(68 135)">
    <g transform="translate(0 120)">
      <path d="m0 70 105-70 130 35 26 106-105 70-130-35Z" fill="#34775f" stroke="#28624e" stroke-width="5"/>
      <path d="m0 70 26 106 130 35 105-70-3 55-103 71-132-36Z" fill="#2d644f"/>
      <path d="m31 81 83-54 94 25 20 77-80 53-96-25Z" fill="#eef7f2" stroke="#2f755c" stroke-width="6"/>
      <g fill="#efb16e"><circle cx="95" cy="101" r="17"/><circle cx="133" cy="112" r="17"/><circle cx="153" cy="80" r="17"/></g>
    </g>
    <g transform="translate(250 0)">
      <path d="m0 70 105-70 130 35 26 106-105 70-130-35Z" fill="url(#mint)" stroke="#2c745b" stroke-width="5"/>
      <path d="m0 70 26 106 130 35 105-70-3 55-103 71-132-36Z" fill="#397e64"/>
      <path d="m31 81 83-54 94 25 20 77-80 53-96-25Z" fill="#edf7f2" stroke="#2f755c" stroke-width="6"/>
      <path d="M45 145 201 54" stroke="#4b9478" stroke-width="6"/>
      <g fill="#8daed1"><circle cx="86" cy="113" r="15"/><circle cx="142" cy="79" r="15"/></g>
    </g>
    <g transform="translate(500 120)">
      <path d="m0 70 105-70 130 35 26 106-105 70-130-35Z" fill="url(#mint)" stroke="#2c745b" stroke-width="5"/>
      <path d="m0 70 26 106 130 35 105-70-3 55-103 71-132-36Z" fill="#397e64"/>
      <path d="m31 81 83-54 94 25 20 77-80 53-96-25Z" fill="#edf7f2" stroke="#2f755c" stroke-width="6"/>
      <path d="m128 105 80-53M128 105l20 77M128 105 31 81" stroke="#4b9478" stroke-width="6"/>
      <g fill="#d98877"><circle cx="98" cy="83" r="13"/><circle cx="164" cy="92" r="13"/><circle cx="136" cy="143" r="13"/></g>
    </g>
    <g fill="#efc568" stroke="#9c7b36" stroke-width="3"><circle cx="246" cy="146" r="8"/><circle cx="498" cy="146" r="8"/></g>
    <path d="M231 146h8M505 146h8" stroke="#8c6a2c" stroke-width="3"/>
  </g>
</svg>
