<svg xmlns="http://www.w3.org/2000/svg" viewBox="0 0 800 450" role="img" aria-labelledby="title desc">
  <title id="title">Sink rack drain bridge concept</title><desc id="desc">Exploded isometric diagram of a level drying rack, clip-on catch adapter, and sloped removable drain bridge reaching into a sink.</desc>
  <defs><linearGradient id="bg" x1="0" y1="0" x2="1" y2="1"><stop stop-color="#f8faf6"/><stop offset="1" stop-color="#edf5f0"/></linearGradient><linearGradient id="mint" x1="0" y1="0" x2="1" y2="1"><stop stop-color="#a7e5cf"/><stop offset="1" stop-color="#5ba98e"/></linearGradient><filter id="shadow"><feDropShadow dx="0" dy="12" stdDeviation="10" flood-color="#365c50" flood-opacity=".16"/></filter></defs>
  <rect width="800" height="450" rx="26" fill="url(#bg)"/><path d="M0 348h800M0 386h800M108 0v450M222 0v450M336 0v450M450 0v450M564 0v450M678 0v450" stroke="#dfe9e2" stroke-width="1"/>
  <g font-family="Arial,sans-serif"><text x="42" y="44" fill="#28745f" font-size="13" font-weight="700" letter-spacing="2">BATHROOM · PRIORITY FIT</text><text x="42" y="72" fill="#183a31" font-size="25" font-weight="700">Sink Rack Drain Bridge</text><text x="42" y="94" fill="#71827c" font-size="12">Level rack · removable channel · coupon before full bridge</text></g>
  <g filter="url(#shadow)"><path d="M487 176h246v139H487z" fill="#dbe8e2"/><path d="M507 194h206v101H507z" rx="13" fill="#c5d8d1"/><path d="M523 207h174v76H523z" rx="22" fill="#f7faf8"/><path d="M68 201l297-59 164 64-300 61z" fill="#d5ded9"/><path d="M77 188l287-57 159 62-294 58z" fill="#f7faf8" stroke="#738b82" stroke-width="3"/></g>
  <g stroke="#52796c" stroke-width="5" fill="none" stroke-linecap="round"><path d="M113 187l286 51M151 170l286 53M190 162l283 50M128 211l277-58M177 228l276-59M226 241l264-55"/></g>
  <path d="M313 235l91 18-15 35-91-19z" fill="#427d69"/><path d="M326 252l66 13-8 15-66-13z" fill="#a7e5cf"/>
  <g filter="url(#shadow)"><path d="M369 266l256 50-31 46-258-49z" fill="url(#mint)" stroke="#2f715d" stroke-width="3"/><path d="M392 278l203 39-13 20-203-39z" fill="#d7f5e9"/><path d="M594 316l65 12-32 47-65-13z" fill="#5b9f87"/></g>
  <path d="M394 244v42M625 299v23" stroke="#d77945" stroke-width="3" stroke-dasharray="5 5"/><circle cx="394" cy="244" r="5" fill="#d77945"/><circle cx="625" cy="299" r="5" fill="#d77945"/>
  <g font-family="Arial,sans-serif" font-size="11" font-weight="700"><g transform="translate(250 291)"><rect width="118" height="27" rx="14" fill="#fff"/><text x="15" y="18" fill="#365d51">01 · catch adapter</text></g><g transform="translate(431 341)"><rect width="121" height="27" rx="14" fill="#fff"/><text x="15" y="18" fill="#365d51">02 · drain bridge</text></g><g transform="translate(611 378)"><rect width="112" height="27" rx="14" fill="#fff"/><text x="15" y="18" fill="#365d51">03 · sink lip</text></g></g>
  <g transform="translate(42 378)" font-family="Arial,sans-serif"><rect width="310" height="42" rx="12" fill="#fff" stroke="#d8e4dd"/><text x="15" y="17" fill="#7a8984" font-size="9" font-weight="700">FIRST PRINT</text><text x="15" y="32" fill="#24483e" font-size="12" font-weight="700">Outlet clip + 80 mm slope coupon</text></g>
</svg>
